<svg width="178" height="41" viewBox="0 0 178 41" fill="none" xmlns="http://www.w3.org/2000/svg">
<path d="M4.872 32V15.788H0.924V10.58H4.872V8.018C4.872 3.258 7.504 0.877998 12.768 0.877998C13.916 0.877998 15.12 1.004 16.38 1.256V6.296C15.484 6.128 14.686 6.044 13.986 6.044C12.866 6.044 12.054 6.254 11.55 6.674C11.074 7.094 10.836 7.752 10.836 8.648V10.58H16.38V15.788H10.836V32H4.872ZM20.0005 32V1.256H25.9645V32H20.0005ZM48.406 30.236C46.67 31.804 44.262 32.588 41.182 32.588C38.102 32.588 35.68 31.804 33.916 30.236C32.18 28.64 31.312 26.484 31.312 23.768V10.58H37.276V23.012C37.276 25.812 38.578 27.212 41.182 27.212C43.758 27.212 45.046 25.812 45.046 23.012V10.58H51.01V23.768C51.01 26.484 50.142 28.64 48.406 30.236ZM73.0974 30.236C71.3614 31.804 68.9534 32.588 65.8734 32.588C62.7934 32.588 60.3714 31.804 58.6074 30.236C56.8714 28.64 56.0034 26.484 56.0034 23.768V10.58H61.9674V23.012C61.9674 25.812 63.2694 27.212 65.8734 27.212C68.4494 27.212 69.7374 25.812 69.7374 23.012V10.58H75.7014V23.768C75.7014 26.484 74.8334 28.64 73.0974 30.236ZM91.0688 32.588C87.7088 32.588 84.9928 31.538 82.9208 29.438C80.8768 27.338 79.8548 24.622 79.8548 21.29C79.8548 17.93 80.8768 15.214 82.9208 13.142C84.9928 11.042 87.7088 9.992 91.0688 9.992C93.1688 9.992 95.0448 10.426 96.6968 11.294C98.3768 12.162 99.6508 13.366 100.519 14.906L96.0668 18.056C94.9188 16.292 93.3088 15.41 91.2368 15.41C89.6408 15.41 88.3528 15.942 87.3728 17.006C86.3928 18.07 85.9028 19.498 85.9028 21.29C85.9028 23.082 86.3928 24.51 87.3728 25.574C88.3528 26.638 89.6408 27.17 91.2368 27.17C93.3088 27.17 94.9188 26.288 96.0668 24.524L100.519 27.632C99.6508 29.2 98.3768 30.418 96.6968 31.286C95.0448 32.154 93.1688 32.588 91.0688 32.588Z" fill="#11CF30"/>
<path d="M116.934 2.6C120.518 2.6 123.234 3.44 125.082 5.12C126.93 6.772 127.854 9.194 127.854 12.386C127.854 15.578 126.93 18 125.082 19.652C123.234 21.304 120.518 22.13 116.934 22.13H110.802V32H104.586V2.6H116.934ZM116.598 16.544C118.306 16.544 119.524 16.222 120.252 15.578C121.008 14.906 121.386 13.842 121.386 12.386C121.386 10.958 121.008 9.922 120.252 9.278C119.524 8.634 118.306 8.312 116.598 8.312H110.802V16.544H116.598ZM146.978 10.58H152.858V32H146.978V28.808C146.362 29.984 145.424 30.908 144.164 31.58C142.904 32.252 141.504 32.588 139.964 32.588C137.164 32.588 134.854 31.538 133.034 29.438C131.214 27.338 130.304 24.622 130.304 21.29C130.304 17.958 131.214 15.242 133.034 13.142C134.854 11.042 137.164 9.992 139.964 9.992C141.504 9.992 142.904 10.328 144.164 11C145.424 11.672 146.362 12.596 146.978 13.772V10.58ZM137.78 25.616C138.76 26.68 140.076 27.212 141.728 27.212C143.38 27.212 144.682 26.68 145.634 25.616C146.614 24.524 147.104 23.082 147.104 21.29C147.104 19.498 146.614 18.07 145.634 17.006C144.682 15.914 143.38 15.368 141.728 15.368C140.076 15.368 138.76 15.914 137.78 17.006C136.828 18.07 136.352 19.498 136.352 21.29C136.352 23.082 136.828 24.524 137.78 25.616ZM172.033 10.58H177.955V29.816C177.955 33.4 176.961 36.158 174.973 38.09C173.013 40.022 170.199 40.988 166.531 40.988C162.639 40.988 159.587 40.036 157.375 38.132L159.853 33.722C161.701 35.066 163.801 35.738 166.153 35.738C168.029 35.738 169.485 35.22 170.521 34.184C171.585 33.176 172.117 31.72 172.117 29.816V28.094C171.529 29.214 170.647 30.096 169.471 30.74C168.295 31.384 166.937 31.706 165.397 31.706C163.157 31.706 161.379 31.006 160.063 29.606C158.775 28.206 158.131 26.246 158.131 23.726V10.58H164.095V22.172C164.095 24.916 165.285 26.288 167.665 26.288C169.009 26.288 170.073 25.896 170.857 25.112C171.641 24.328 172.033 23.222 172.033 21.794V10.58Z" fill="white"/>
</svg>
